<svg xmlns="http://www.w3.org/2000/svg" width="24" height="24">
    <style type="text/css">
        .color {
            fill: #ffffff;
        }
    </style>
    <g fill="none">
        <path fill="none" d="M0 0h24v24H0z" />
        <path class="color"
            d="M7.157 15.511a1.068 1.068 0 00.527 1.371 6.664 6.664 0 005.889-.086c.461-.234.658-.793.469-1.286a1.61 1.61 0 00-.042-.095c-.256-.514-.862-.727-1.354-.477a4.715 4.715 0 01-4.171.067.971.971 0 00-1.318.506z" />
        <path class="color"
            d="M10.583 2C5.299 2 1 6.299 1 11.583s4.299 9.582 9.583 9.582 9.582-4.298 9.582-9.582C20.165 6.299 15.867 2 10.583 2zm0 17.49c-4.36 0-7.907-3.548-7.907-7.907 0-4.36 3.547-7.907 7.907-7.907 4.36 0 7.906 3.547 7.906 7.907 0 4.36-3.547 7.906-7.906 7.906z" />
        <path class="color"
            d="M22.697 22.63l-5.489-5.49a.755.755 0 10-1.068 1.068l5.49 5.49a.75.75 0 00.533.22.754.754 0 00.534-1.289z" />
    </g>
</svg>